<svg width="44" height="44" viewBox="0 0 44 44" fill="none" xmlns="http://www.w3.org/2000/svg">
<path d="M22 44C9.87021 44 0 34.1298 0 22C0 9.87022 9.87021 0 22 0C34.1298 0 44 9.87022 44 22C44 34.1298 34.1298 44 22 44ZM22 1.66909C10.7887 1.66909 1.66909 10.7887 1.66909 22C1.66909 33.2113 10.7887 42.3309 22 42.3309C33.2113 42.3309 42.3309 33.2113 42.3309 22C42.3309 10.7887 33.2113 1.66909 22 1.66909Z" fill="#FD9900"/>
<path d="M22 41.2419C11.3897 41.2419 2.75818 32.6104 2.75818 22.0001C2.75818 11.3898 11.3897 2.7583 22 2.7583C32.6103 2.7583 41.2418 11.3898 41.2418 22.0001C41.2418 32.6104 32.6103 41.2419 22 41.2419ZM22 3.09159C11.5734 3.09159 3.09147 11.5735 3.09147 22.0001C3.09147 32.4267 11.5734 40.9086 22 40.9086C32.4266 40.9086 40.9085 32.4267 40.9085 22.0001C40.9085 11.5735 32.4266 3.09159 22 3.09159Z" fill="#FD9900"/>
<path d="M32.5447 14.7278C32.5447 11.3502 30.5056 8.60254 27.4771 8.60254C24.4485 8.60254 22.4094 11.3502 22.4094 14.7278C22.4094 17.4099 23.963 19.6931 26.1203 20.5198C26.5454 20.6825 26.8393 21.0709 26.8393 21.5275L26.4142 34.3318C26.4142 34.9196 26.8918 35.3973 27.4797 35.3973C28.0675 35.3973 28.5452 34.9196 28.5452 34.3318L28.12 21.5275C28.12 21.0735 28.414 20.6851 28.8391 20.5198C30.9911 19.6931 32.5447 17.4099 32.5447 14.7278Z" fill="#FD9900"/>
<path d="M19.8664 8.60254C19.2785 8.60254 18.8009 9.08017 18.8009 9.66803V15.6411C18.8009 15.9402 18.5857 16.2132 18.2471 16.2368C17.8876 16.2604 17.5937 15.9376 17.5937 15.5781V9.66803C17.5937 9.08017 17.116 8.60254 16.5282 8.60254C15.9403 8.60254 15.4627 9.08017 15.4627 9.66803V15.5781C15.4627 15.9402 15.1714 16.263 14.8092 16.2368C14.4707 16.2132 14.2555 15.9402 14.2555 15.6411V9.66803C14.2555 9.08017 13.7779 8.60254 13.19 8.60254C12.6021 8.60254 12.1245 9.08017 12.1245 9.66803V18.6906C12.1245 19.8112 15.8905 20.1655 15.8905 21.2808L15.4653 34.2557C15.4653 34.8225 15.8721 35.3448 16.4363 35.392C17.0688 35.4471 17.5963 34.9511 17.5963 34.3318C17.5963 34.3318 17.1712 22.9604 17.1712 21.2808C17.1712 20.1602 20.9371 19.8112 20.9371 18.6906V9.66803C20.9319 9.08017 20.4542 8.60254 19.8664 8.60254Z" fill="#FD9900"/>
</svg>
