<?xml version="1.0" encoding="UTF-8" standalone="no"?>
<svg
   width="44"
   height="44"
   viewBox="0 0 44 44"
   fill="none"
   version="1.1"
   id="svg12"
   xmlns="http://www.w3.org/2000/svg"
   xmlns:svg="http://www.w3.org/2000/svg">
  <defs
     id="defs16" />
  <path
     id="path142-6"
     style="fill:#0066da;fill-opacity:1"
     d="M 22 14 C 17.5817 14 14 17.5817 14 22 C 14 26.4183 17.5817 30 22 30 C 26.4183 30 30 26.4183 30 22 C 30 17.5817 26.4183 14 22 14 z " />
  <path
     id="path142-6-2"
     style="fill:#000000"
     d="M 21.787109 0.21289062 A 22.427185 22.427185 0 0 0 14.751953 1.3886719 C 16.027717 4.1128259 18.793093 6 22 6 C 25.170968 6 27.91071 4.1554081 29.205078 1.4804688 A 22.427185 22.427185 0 0 0 21.787109 0.21289062 z " />
  <path
     id="path142-6-9"
     style="fill:#0066da;fill-opacity:1"
     d="M 5.7246094 38 A 22.427185 22.427185 0 0 0 21.787109 44.853516 A 22.427185 22.427185 0 0 0 37.916016 38 L 5.7246094 38 z " />
  <path
     id="path142-6-9-3"
     style="fill:#223784;fill-opacity:1"
     d="M 42.914062 15.123047 C 40.570965 16.518246 39 19.074948 39 22 C 39 25.067573 40.72741 27.731896 43.261719 29.074219 A 22.427185 22.427185 0 0 0 44.212891 22.640625 A 22.427185 22.427185 0 0 0 42.914062 15.123047 z " />
  <path
     id="path4"
     d="M 6 6.7910156 A 22.427185 22.427185 0 0 0 0 22 A 22.427185 22.427185 0 0 0 1.2734375 29.294922 C 4.0576256 28.043135 6 25.250594 6 22 L 6 6.7910156 z "
     style="fill:#002856;fill-opacity:1" />
</svg>
