<?xml version="1.0" encoding="UTF-8" standalone="no"?>
<svg
   width="18"
   height="21"
   viewBox="0 0 18 21"
   fill="currentColor"
   version="1.1"
   id="svg4"
   xmlns="http://www.w3.org/2000/svg"
   xmlns:svg="http://www.w3.org/2000/svg">
  <defs
     id="defs8" />
  <path
     id="path2"
     d="m 13,0 c -0.255925,0 -0.511781,0.0977067 -0.707031,0.29296875 -0.3905,0.390524 -0.3905,1.02353255 0,1.41406245 L 14.585938,4 H 1 C 0.447715,4 0,4.44772 0,5 0,5.55228 0.447715,6 1,6 h 13.585938 l -2.292969,2.2929688 c -0.3905,0.39053 -0.3905,1.0235324 0,1.4140624 0.3905,0.3904898 1.023562,0.3904898 1.414062,0 l 4,-4 c 0.3905,-0.39053 0.3905,-1.0235324 0,-1.4140624 l -4,-4.00000005 C 13.511781,0.0977067 13.255925,0 13,0 Z M 5.0019531,11 c -0.2559225,-3.25e-4 -0.5134643,0.09797 -0.7089843,0.292969 L 0.29296875,15.28125 C 0.10518575,15.46855 3.4815047e-4,15.723081 0,15.988281 c -3.4809154e-4,0.2652 0.10372463,0.519232 0.29101562,0.707031 l 3.99999998,4.011719 c 0.39001,0.391 1.0249757,0.39 1.4160156,0 0.39104,-0.39 0.3919632,-1.022962 0.00195,-1.414062 L 3.4121094,16.990234 17,17 c 0.5523,4e-4 0.9996,-0.4478 1,-1 4e-4,-0.5523 -0.4478,-0.9996 -1,-1 l -13.5820312,-0.0098 2.2890624,-2.283203 c 0.39103,-0.39 0.3919632,-1.022962 0.00195,-1.414062 C 5.5139744,11.097469 5.2578756,11.000325 5.0019531,11 Z" />
</svg>
