<svg width="18" height="21" viewBox="0 0 18 21" fill="currentColor" xmlns="http://www.w3.org/2000/svg">
    <path fill-rule="evenodd" clip-rule="evenodd"
          d="M12.2929 0.292893C12.6834 -0.0976311 13.3166 -0.0976311 13.7071 0.292893L17.7071 4.29289C18.0976 4.68342 18.0976 5.31658 17.7071 5.70711L13.7071 9.70711C13.3166 10.0976 12.6834 10.0976 12.2929 9.70711C11.9024 9.31658 11.9024 8.68342 12.2929 8.29289L14.5858 6H1C0.447715 6 2.80696e-08 5.55228 2.80696e-08 5C2.80696e-08 4.44772 0.447715 4 1 4H14.5858L12.2929 1.70711C11.9024 1.31658 11.9024 0.683417 12.2929 0.292893ZM5.70804 11.2938C6.09805 11.6849 6.09721 12.318 5.70618 12.708L3.41712 14.9911L17.0007 15C17.5529 15.0004 18.0004 15.4484 18 16.0007C17.9996 16.5529 17.5516 17.0004 16.9993 17L3.41132 16.9911L5.70803 19.2938C6.09804 19.6849 6.09722 20.318 5.70618 20.708C5.31514 21.098 4.68198 21.0972 4.29197 20.7062L0.291967 16.6957C0.104676 16.5079 -0.000347229 16.2534 8.62535e-07 15.9882C0.000349013 15.723 0.10604 15.4688 0.293823 15.2815L4.29382 11.292C4.68486 10.902 5.31802 10.9028 5.70804 11.2938Z"
          />
</svg>
