<?xml version="1.0" encoding="UTF-8" standalone="no"?>
<svg
   width="18"
   height="18"
   viewBox="0 0 18 18"
   fill="currentColor"
   version="1.1"
   id="svg43"
   xmlns="http://www.w3.org/2000/svg"
   xmlns:svg="http://www.w3.org/2000/svg">
  <defs
     id="defs47" />
  <path
     id="path136"
     d="M 9,0 C 4.02944,0 0,4.02944 0,9 c 0,4.9706 4.02943,9 9,9 h 5.298828 c 0.4897,0 0.898122,8.09e-4 1.232422,-0.02539 0.3486,-0.0274 0.676281,-0.08668 0.988281,-0.238281 0.5301,-0.2575 0.959297,-0.686697 1.216797,-1.216797 0.1516,-0.312 0.210881,-0.639681 0.238281,-0.988281 C 18.000809,15.19695 18,14.788528 18,14.298828 V 9 C 18,4.02944 13.9706,0 9,0 Z m 0,1.4335938 c 4.1788,0 7.566406,3.3876162 7.566406,7.5664062 v 5.271484 c 0,0.5248 -8.4e-5,0.876838 -0.02148,1.148438 -0.0206,0.2637 -0.05706,0.391109 -0.09766,0.474609 -0.117,0.2409 -0.311835,0.435735 -0.552735,0.552735 -0.0835,0.0406 -0.210909,0.07706 -0.474609,0.09766 -0.2716,0.0214 -0.623638,0.02148 -1.148438,0.02148 H 9 C 4.82121,16.566406 1.4335938,13.1788 1.4335938,9 1.4335938,4.82121 4.82121,1.4335938 9,1.4335938 Z M 5.8945312,7.2480469 c -0.3958899,0 -0.7167968,0.3209168 -0.7167968,0.7167969 0,0.3958899 0.3209069,0.7167968 0.7167968,0.7167968 h 6.2109378 c 0.3959,0 0.716797,-0.3209068 0.716797,-0.7167968 0,-0.39588 -0.320897,-0.7167969 -0.716797,-0.7167969 z M 9,11.388672 c -0.39589,0 -0.7167969,0.320897 -0.7167969,0.716797 0,0.3959 0.3209069,0.716797 0.7167969,0.716797 h 3.105469 c 0.3959,0 0.716797,-0.320897 0.716797,-0.716797 0,-0.3959 -0.320897,-0.716797 -0.716797,-0.716797 z" />
</svg>