<?xml version="1.0" encoding="UTF-8" standalone="no"?>
<svg
   width="22"
   height="19"
   viewBox="0 0 22 19"
   fill="currentColor"
   version="1.1"
   id="svg8"
   xmlns="http://www.w3.org/2000/svg"
   xmlns:svg="http://www.w3.org/2000/svg">
  <defs
     id="defs12" />
  <path
     id="path2"
     d="m 15.349609,0 c -0.181,-0.00124399 -0.359387,0.07061773 -0.492187,0.20507812 L 12.117188,2.9804688 c -0.268001,0.27151 -0.267047,0.7099187 0.002,0.9804687 0.2689,0.27056 0.704556,0.27151 0.972656,0 l 1.566406,-1.5898437 0.0078,6.6503906 c 4e-4,0.38314 0.309853,0.6955325 0.689453,0.6953125 0.3795,-2.3e-4 0.685547,-0.3121725 0.685547,-0.6953125 V 2.3691406 l 1.576172,1.5917969 c 0.268499,0.27103 0.704156,0.27103 0.972656,0 0.2684,-0.27103 0.2684,-0.7113919 0,-0.9824219 l -2.75,-2.7753906 C 15.707144,0.0692091 15.530109,-0.00123086 15.349609,0 Z m 5.472657,10.105469 c -0.1679,0.0058 -0.335728,0.04709 -0.486328,0.117187 l -4.470704,2.267578 c 0.0463,0.2572 0.02263,0.514285 -0.04687,0.771485 -0.2317,0.982 -1.158059,1.612994 -2.130859,1.496093 L 9.75,14.244141 c -0.32424,-0.0468 -0.5541725,-0.32895 -0.5078125,-0.65625 0.04636,-0.3274 0.3241775,-0.560472 0.6484375,-0.513672 l 3.935547,0.513672 c 0.3937,0.0468 0.741722,-0.209785 0.857422,-0.583985 0.0925,-0.3741 -0.09195,-0.748372 -0.439453,-0.888672 l -4.076172,-1.730468 c -0.7874502,-0.3506 -1.6912734,-0.3506 -2.5019534,0 L 5.0957031,11.484375 V 17.9375 l 6.3457029,1.005859 c 1.297,0.2104 2.617482,-0.164434 3.613282,-1.052734 l 6.554687,-5.705078 c 0.3473,-0.3505 0.463456,-0.817519 0.347656,-1.261719 -0.0926,-0.3274 -0.324237,-0.584409 -0.648437,-0.724609 -0.1506,-0.07015 -0.318428,-0.09959 -0.486328,-0.09375 z M 0.671875,10.478516 C 0.301262,10.478516 0,10.78235 0,11.15625 v 7.15625 c 0,0.3741 0.301432,0.677734 0.671875,0.677734 H 3.21875 c 0.37061,0 0.671875,-0.303834 0.671875,-0.677734 V 11.15625 C 3.913885,10.78215 3.58936,10.478516 3.21875,10.478516 Z" />
</svg>
