<?xml version="1.0" encoding="UTF-8" standalone="no"?>
<svg
   width="20"
   height="18"
   viewBox="0 0 20 18"
   fill="currentColor"
   version="1.1"
   id="svg55"
   xmlns="http://www.w3.org/2000/svg"
   xmlns:svg="http://www.w3.org/2000/svg">
  <defs
     id="defs59" />
  <path
     id="path154"
     d="m 3.8457031,0 c -0.42483,0 -0.7695312,0.35634288 -0.7695312,0.79492188 0,0.43858202 0.3447012,0.79296872 0.7695312,0.79296872 H 16.154297 c 0.4249,0 0.769531,-0.3543867 0.769531,-0.79296872 C 16.923828,0.35634288 16.579197,0 16.154297,0 Z M 2.3085938,2.6464844 c -0.42483,0 -0.7695313,0.3563419 -0.7695313,0.7949218 0,0.43858 0.3447012,0.7929688 0.7695313,0.7929688 H 17.691406 c 0.4248,0 0.769532,-0.3543888 0.769532,-0.7929688 -10e-7,-0.4385799 -0.344732,-0.7949218 -0.769532,-0.7949218 z M 2.8203125,5.2949219 C 1.2625925,5.2949219 0,6.5969581 0,8.2050781 V 15.087891 C 0,16.696091 1.2625925,18 2.8203125,18 H 17.179688 C 18.737387,18 20,16.696091 20,15.087891 V 8.2050781 c 0,-1.60812 -1.262612,-2.9101562 -2.820312,-2.9101562 z m 0,1.5878906 H 17.179688 c 0.708,0 1.28125,0.5913056 1.28125,1.3222656 v 6.8828129 c -10e-7,0.731 -0.573251,1.324218 -1.28125,1.324218 H 2.8203125 c -0.70805,0 -1.28125,-0.593218 -1.28125,-1.324218 V 8.2050781 c 0,-0.73096 0.5732,-1.3222656 1.28125,-1.3222656 z m 5.1289063,0.5292969 c -0.8503801,0 -1.5390626,0.7119537 -1.5390626,1.5898437 0,0.87789 0.6886825,1.5898439 1.5390626,1.5898439 0.85038,0 1.5410156,-0.7119539 1.5410156,-1.5898439 0,-0.87789 -0.6906356,-1.5898437 -1.5410156,-1.5898437 z m 4.0976562,0 c -0.164604,0.00109 -0.325641,0.084247 -0.423828,0.2363281 L 7.5234375,14 c -0.15704,0.2433 -0.093122,0.572275 0.1425781,0.734375 0.2357,0.1621 0.5538975,0.09682 0.7109375,-0.146484 L 12.476562,8.234375 C 12.633562,7.991055 12.569684,7.66212 12.333984,7.5 12.245597,7.4392088 12.145637,7.4114524 12.046875,7.4121094 Z M 7.9492188,8.4707031 c 0.2839299,0 0.515625,0.23814 0.515625,0.53125 0,0.29312 -0.231695,0.5292969 -0.515625,0.5292969 -0.28393,0 -0.5136719,-0.2361769 -0.5136719,-0.5292969 0,-0.29311 0.2297419,-0.53125 0.5136719,-0.53125 z m 4.1015622,3.1738279 c -0.8504,0 -1.541015,0.711944 -1.541015,1.589844 0,0.8779 0.690615,1.589844 1.541015,1.589844 0.8504,0 1.539063,-0.711944 1.539063,-1.589844 0,-0.8779 -0.688663,-1.589844 -1.539063,-1.589844 z m 0,1.058594 c 0.2839,0 0.513672,0.23815 0.513672,0.53125 0,0.2931 -0.229772,0.53125 -0.513672,0.53125 -0.2839,0 -0.515625,-0.23815 -0.515625,-0.53125 0,-0.2931 0.231725,-0.53125 0.515625,-0.53125 z" />
</svg>