<?xml version="1.0" encoding="UTF-8" standalone="no"?>
<svg
   width="22"
   height="15.999988"
   viewBox="0 0 22 15.999988"
   fill="currentColor"
   version="1.1"
   id="svg43"
   xmlns="http://www.w3.org/2000/svg"
   xmlns:svg="http://www.w3.org/2000/svg">
  <defs
     id="defs47" />
  <path
     id="path136"
     d="M 11.925781,0.00195313 C 11.587889,0.02352639 11.299788,0.2936995 11.25,0.6640625 L 9.3085938,15.115234 c -0.05684,0.4233 0.2192775,0.816554 0.6171874,0.876954 C 10.323681,16.052687 10.6931,15.759237 10.75,15.335938 L 12.691406,0.8828125 c 0.0569,-0.423273 -0.219287,-0.81453255 -0.617187,-0.875 -0.04974,-0.007558444 -0.100167,-0.00894127 -0.148438,-0.00585937 z M 6.1484375,1.0332031 c -0.186255,0 -0.373515,0.075392 -0.515625,0.2265625 L 0.49804688,6.7226562 c -0.66317301,0.70546 -0.66317301,1.8492275 0,2.5546876 L 5.6328125,14.740234 c 0.28422,0.3023 0.7450769,0.3023 1.0292969,0 0.28422,-0.3023 0.28422,-0.79135 0,-1.09375 L 1.5273438,8.1816406 c -0.09474,-0.10078 -0.09474,-0.2625012 0,-0.3632812 L 6.6621094,2.3535156 c 0.28422,-0.30234 0.28422,-0.79142 0,-1.09375 C 6.5199994,1.1085951 6.3346925,1.0332031 6.1484375,1.0332031 Z m 9.7031245,0 c -0.186249,0 -0.371571,0.075392 -0.513671,0.2265625 -0.2842,0.30233 -0.2842,0.79141 0,1.09375 l 5.134765,5.4648438 c 0.0947,0.10078 0.0947,0.2625012 0,0.3632812 l -5.134765,5.4648434 c -0.2842,0.3024 -0.2842,0.79145 0,1.09375 0.2842,0.3023 0.745097,0.3023 1.029297,0 l 5.134765,-5.4628902 c 0.6632,-0.7054601 0.6632,-1.8492276 0,-2.5546876 L 16.367188,1.2597656 C 16.225088,1.1085951 16.037812,1.0332031 15.851562,1.0332031 Z" />
</svg>