<svg width="20" height="19" viewBox="0 0 20 19" fill="currentColor" xmlns="http://www.w3.org/2000/svg">
<path d="M17.9998 19H2.00017C1.78804 19 1.58447 18.9166 1.43447 18.7682C1.28448 18.6197 1.20019 18.4183 1.20019 18.2083V10.2918C1.20019 10.0819 1.28448 9.88042 1.43447 9.73199C1.58447 9.58355 1.78804 9.50015 2.00017 9.50015C2.21231 9.50015 2.41588 9.58355 2.56587 9.73199C2.71587 9.88042 2.80015 10.0819 2.80015 10.2918V17.0209C2.80015 17.1258 2.84229 17.2266 2.91729 17.3008C2.99229 17.375 3.09407 17.4167 3.20014 17.4167H16.7998C16.9058 17.4167 17.0076 17.375 17.0826 17.3008C17.1576 17.2266 17.1998 17.1258 17.1998 17.0209V10.2918C17.1998 10.0819 17.2841 9.88042 17.4341 9.73199C17.584 9.58355 17.7876 9.50015 17.9998 9.50015C18.2119 9.50015 18.4155 9.58355 18.5655 9.73199C18.7154 9.88042 18.7997 10.0819 18.7997 10.2918V18.2083C18.7997 18.4183 18.7154 18.6197 18.5655 18.7682C18.4155 18.9166 18.2119 19 17.9998 19Z" />
<path d="M8.4 9.50015H11.5999C11.8121 9.50015 12.0156 9.58355 12.1656 9.73199C12.3156 9.88042 12.3999 10.0819 12.3999 10.2918V15.8334C12.3999 15.9383 12.3578 16.0391 12.2828 16.1133C12.2078 16.1875 12.106 16.2292 11.9999 16.2292H8.00001C7.77913 16.2292 7.60002 16.052 7.60002 15.8334V10.2918C7.60002 10.0819 7.68431 9.88042 7.8343 9.73199C7.9843 9.58355 8.18787 9.50015 8.4 9.50015Z" />
<path d="M15.6679 0.00017751H4.33201C4.1188 8.123e-07 3.91434 0.0841155 3.76398 0.233788L0.236207 3.72485C0.0849607 3.87364 -3.85721e-05 4.07597 0.000139709 4.28697V5.87028C-0.00575317 6.37124 0.174956 6.85668 0.507647 7.23409C0.840314 7.61155 1.30191 7.85452 1.80402 7.91673C2.36757 7.97168 2.92811 7.78755 3.34684 7.41029C3.7654 7.03302 4.00273 6.49795 4.00003 5.93759C4.00003 6.64461 4.38127 7.29806 5.00001 7.6515C5.61873 8.00509 6.38123 8.00509 6.99996 7.6515C7.61868 7.29808 7.99993 6.64461 7.99993 5.93759C7.99993 6.64461 8.38117 7.29806 8.9999 7.6515C9.61863 8.00509 10.3811 8.00509 10.9999 7.6515C11.6186 7.29808 11.9998 6.64461 11.9998 5.93759C11.9998 6.64461 12.3811 7.29806 12.9998 7.6515C13.6185 8.00509 14.381 8.00509 14.9997 7.6515C15.6185 7.29808 15.9997 6.64461 15.9997 5.93759C15.997 6.49795 16.2344 7.03301 16.6529 7.41029C17.0717 7.78756 17.6322 7.97169 18.1957 7.91673C18.7007 7.85417 19.1644 7.6089 19.4975 7.22808C19.8307 6.84727 20.0094 6.35798 19.9996 5.85453V4.27123C19.9998 4.06023 19.9148 3.8579 19.7635 3.70911L16.2356 0.217865C16.0826 0.0740232 15.8788 -0.00424218 15.6679 0.00017751Z" />
</svg>
