<?xml version="1.0" encoding="UTF-8" standalone="no"?>
<svg
   width="18.000017"
   height="18"
   viewBox="0 0 18.000017 18"
   fill="currentColor"
   version="1.1"
   id="svg43"
   xmlns="http://www.w3.org/2000/svg"
   xmlns:svg="http://www.w3.org/2000/svg">
  <defs
     id="defs47" />
  <path
     id="path136"
     d="m 3.7949219,0 c -0.32561,-3.895395e-5 -0.6295225,-1.1647879e-4 -0.8828125,0.02929688 -0.28156,0.03269689 -0.5783163,0.10827799 -0.8476563,0.3125 -0.26935,0.204222 -0.4166281,0.46531725 -0.5175781,0.72265622 -0.09082,0.2315 -0.1652106,0.5174388 -0.2441406,0.8242188 -0.00288,0.01118 -0.00492,0.021963 -0.00781,0.033203 L 0.14648438,6.3828125 c -0.042651,0.16565 -0.08016756,0.3143131 -0.10546876,0.4394531 -0.02645119,0.13083 -0.04837099,0.2803763 -0.03710937,0.4414063 0.04608454,0.65897 0.49935838,1.2244944 1.14648435,1.4277343 0.15925,0.05002 0.3171081,0.065546 0.4550782,0.072266 0.00769,3.748e-4 0.019466,-3.327e-4 0.027344,0 v 4.9003901 c -3e-5,0.829301 1.619e-4,1.521213 0.076172,2.070313 0.08023,0.5795 0.2565131,1.101084 0.6894531,1.521484 0.43294,0.4204 0.9716194,0.592022 1.5683594,0.669922 C 4.5321569,17.999581 5.2455694,18 6.0996094,18 h 0.5234375 4.7539061 0.523438 c 0.8541,0 1.567412,-4.19e-4 2.132812,-0.07422 0.5967,-0.0779 1.135459,-0.249522 1.568359,-0.669922 0.433001,-0.4204 0.609254,-0.941984 0.689454,-1.521484 0.076,-0.5491 0.07627,-1.241013 0.07617,-2.070313 V 8.7636719 c 0.0079,-3.327e-4 0.01965,3.748e-4 0.02734,0 0.138,-0.00672 0.295878,-0.022246 0.455078,-0.072266 0.6472,-0.20324 1.100385,-0.7687643 1.146485,-1.4277343 0.0113,-0.16103 -0.01061,-0.3105763 -0.03711,-0.4414063 -0.0253,-0.12517 -0.06277,-0.2737731 -0.105468,-0.4394531 l -1.15625,-4.4941406 c -0.0789,-0.30678 -0.153341,-0.5927188 -0.244141,-0.8242188 -0.101,-0.25733798 -0.248278,-0.51843422 -0.517578,-0.72265622 -0.2694,-0.204222 -0.566156,-0.27980311 -0.847656,-0.3125 C 14.834591,-1.1647879e-4 14.530778,-3.895395e-5 14.205078,0 H 3.8300781 Z m 0.035156,1.3847656 H 14.169922 c 0.3738,0 0.5916,0.00114 0.75,0.019531 0.0716,0.00832 0.1076,0.017527 0.125,0.023437 0.008,0.00271 0.01172,0.00586 0.01172,0.00586 h 0.002 c 0,0 0.0031,0.0029 0.0078,0.00977 0.0101,0.01493 0.02899,0.047771 0.05469,0.1132812 0.0568,0.14473 0.110572,0.3490219 0.201172,0.7011719 l 1.144531,4.4453125 c 0.0478,0.18577 0.07625,0.2986556 0.09375,0.3847656 0.011,0.05449 0.01327,0.079738 0.01367,0.085937 -0.008,0.0907 -0.0696,0.1674556 -0.158203,0.1972657 -0.0064,0.00109 -0.0325,0.00688 -0.0918,0.00977 -0.0928,0.00452 -0.218422,0.00391 -0.419922,0.00391 -0.5459,0 -0.697447,-0.00372 -0.810547,-0.029297 -0.3726,-0.0843 -0.681225,-0.3385507 -0.828125,-0.6816407 -0.0447,-0.10433 -0.07246,-0.2450894 -0.160156,-0.7558593 l -0.002,-0.00977 c -0.01,-0.05813 -0.0196,-0.1172225 -0.0293,-0.1640625 -0.0051,-0.02452 -0.01349,-0.062232 -0.02539,-0.1015625 l -0.002,-0.00195 c -0.0073,-0.02432 -0.03698,-0.1253356 -0.113281,-0.2285156 -0.3224,-0.43583 -0.9901,-0.43583 -1.3125,0 -0.0763,0.10318 -0.105981,0.2041956 -0.113282,0.2285156 l -0.002,0.00195 c -0.0119,0.03933 -0.02029,0.077043 -0.02539,0.1015625 -0.0097,0.04684 -0.0193,0.1059325 -0.0293,0.1640625 l -0.07813,0.4609375 c -0.0088,0.05149 -0.01147,0.066955 -0.01367,0.078125 -0.1049,0.53434 -0.580725,0.92492 -1.140625,0.9375 -0.0117,2.6e-4 -0.02628,0 -0.08008,0 -0.0538,0 -0.06838,2.6e-4 -0.08008,0 -0.5599,-0.01258 -1.035765,-0.40316 -1.1406252,-0.9375 -0.00219,-0.01117 -0.00483,-0.026635 -0.013672,-0.078125 L 9.8261719,5.9082031 C 9.8162019,5.8500731 9.806555,5.7909706 9.796875,5.7441406 9.791805,5.7196206 9.7833344,5.6819081 9.7714844,5.6425781 l -0.00195,-0.00195 C 9.7622612,5.616305 9.73257,5.5152894 9.65625,5.4121094 c -0.32237,-0.43583 -0.99013,-0.43583 -1.3125,0 C 8.26743,5.5152894 8.2377388,5.616305 8.2304688,5.640625 l -0.00195,0.00195 c -0.01185,0.03933 -0.020321,0.077043 -0.025391,0.1015625 -0.00968,0.04684 -0.019327,0.1059325 -0.029297,0.1640625 l -0.078125,0.4609375 c -0.00884,0.05149 -0.011482,0.066955 -0.013672,0.078125 -0.10484,0.53434 -0.580645,0.92492 -1.140625,0.9375 -0.0117,2.6e-4 -0.026318,0 -0.080078,0 -0.05376,0 -0.068378,2.6e-4 -0.080078,0 -0.55998,-0.01258 -1.035785,-0.40316 -1.140625,-0.9375 -0.00219,-0.01117 -0.00483,-0.026635 -0.013672,-0.078125 L 5.5488281,5.9082031 c -0.00997,-0.05813 -0.019617,-0.1172325 -0.029297,-0.1640625 -0.00507,-0.02452 -0.013541,-0.062232 -0.025391,-0.1015625 l -0.00195,-0.00195 c -0.00727,-0.02432 -0.036961,-0.1253356 -0.1132813,-0.2285156 -0.3223699,-0.43583 -0.99012,-0.43583 -1.3125,0 C 3.9900962,5.5152894 3.960385,5.616315 3.953125,5.640625 l -0.00195,0.00195 c -0.01185,0.03933 -0.020321,0.077043 -0.025391,0.1015625 -0.00968,0.04684 -0.019327,0.1059225 -0.029297,0.1640625 l -0.00195,0.00977 C 3.8068712,6.4287388 3.779045,6.5694981 3.734375,6.6738281 3.587495,7.0169181 3.27888,7.2711688 2.90625,7.3554688 c -0.11307,0.02558 -0.2646569,0.029297 -0.8105469,0.029297 -0.20149,0 -0.3270619,6.138e-4 -0.4199219,-0.00391 -0.05926,-0.00289 -0.085397,-0.00868 -0.091797,-0.00977 -0.08851,-0.0298 -0.1501032,-0.1065957 -0.1582032,-0.1972657 4.2e-4,-0.0061 0.00262,-0.031277 0.013672,-0.085937 0.01741,-0.08611 0.04593,-0.1989856 0.09375,-0.3847656 L 2.6777344,2.2578125 c 0.09065,-0.35215 0.1443919,-0.5564319 0.2011718,-0.7011719 0.0257,-0.0655 0.044568,-0.098351 0.054688,-0.1132812 0.00465,-0.00687 0.00781,-0.00977 0.00781,-0.00977 0,0 0.00568,-0.00315 0.013672,-0.00586 0.01737,-0.00591 0.05334,-0.015118 0.125,-0.023437 0.15837,-0.01839 0.37622,-0.019531 0.75,-0.019531 z m 0.8925781,6.3769532 c 0.46929,0.6026699 1.2059407,0.9874593 2.0253907,1.0058593 0.03041,6.9e-4 0.063069,0.00195 0.1054687,0.00195 h 0.015625 c 0.0424,1e-7 0.075049,-0.00126 0.1054688,-0.00195 C 7.7940094,8.7491781 8.5307,8.3643288 9,7.7617188 c 0.4693,0.60261 1.205991,0.9874593 2.025391,1.0058593 0.0304,6.9e-4 0.06307,0.00195 0.105468,0.00195 h 0.01563 c 0.0424,0 0.07507,-0.00126 0.105469,-0.00195 0.8195,-0.0184 1.556091,-0.4031894 2.025391,-1.0058593 0.3646,0.4686199 0.889787,0.8051462 1.492187,0.9414062 0.05539,0.012533 0.113452,0.021046 0.171875,0.029297 v 4.8828121 c 0,0.8898 -0.0028,1.487694 -0.06445,1.933594 -0.059,0.4259 -0.159303,0.608216 -0.283203,0.728516 -0.1238,0.1203 -0.313353,0.220043 -0.751953,0.277344 -0.41219,0.05378 -0.983099,0.05779 -1.751953,0.05859 v -3.921875 c 0,-0.8921 -0.745363,-1.615234 -1.664063,-1.615234 H 7.5742188 c -0.91869,0 -1.6640626,0.723134 -1.6640626,1.615234 v 3.921875 C 5.1412915,16.612473 4.5704289,16.608467 4.1582031,16.554688 3.7195731,16.497388 3.53012,16.397644 3.40625,16.277344 3.28238,16.157044 3.1820169,15.974728 3.1230469,15.548828 c -0.06173,-0.4459 -0.064453,-1.043794 -0.064453,-1.933594 V 8.7324219 C 3.1170219,8.724171 3.1750727,8.7156583 3.2304688,8.703125 3.8327887,8.566865 4.3580163,8.2303388 4.7226562,7.7617188 Z m 2.8515626,4.6992192 h 2.8515622 c 0.1312,0 0.238281,0.103068 0.238281,0.230468 v 3.923828 H 7.3359375 v -3.923828 c 0,-0.1274 0.1070412,-0.230468 0.2382813,-0.230468 z" />
</svg>