<?xml version="1.0" encoding="UTF-8" standalone="no"?>
<svg
   width="20"
   height="20"
   viewBox="0 0 20 20"
   fill="currentColor"
   version="1.1"
   id="svg6"
   xmlns="http://www.w3.org/2000/svg"
   xmlns:svg="http://www.w3.org/2000/svg">
  <defs
     id="defs10" />
  <path
     id="path2"
     d="M 7.4101562,0.00195313 C 6.6925794,0.0258133 5.9088075,0.2125855 5.125,0.55859375 3.95843,1.0998628 0,3.3896269 0,9.9667969 c 0,5.4949101 3.45821,9.9902341 7.75,9.9902341 4.58337,0 7.75,-5.036819 7.75,-9.574219 0,-1.4570195 -0.333984,-2.6628589 -0.958984,-3.5371089 -0.7084,-1.04071 -1.832516,-1.5820312 -3.166016,-1.5820312 -0.3749,0 -0.707716,-0.1674944 -0.916016,-0.4589844 -0.2084,-0.33294 -0.293068,-0.7488512 -0.167968,-1.0820313 0.375,-1.24885 0.209598,-2.2883057 -0.5820316,-2.9960937 C 9.1465069,0.21135356 8.3327551,-0.02872425 7.4101562,0.00195313 Z m 10.0468748,0 c -0.04102,3.26e-6 -0.0814,0.0052075 -0.123047,0.015625 -0.1666,0.04166989 -0.25,0.20852799 -0.25,0.37499999 C 17.000584,2.3075351 16.625,2.641025 16.25,3.015625 16.1666,3.098965 16.0834,3.1393162 16,3.2226562 c -0.5416,0.58275 -0.7085,1.4582357 -0.375,2.1660157 0.1666,0.33295 0.374316,0.5828756 0.666016,0.7910156 -0.1249,1.87327 -0.207032,2.9961206 -0.207032,4.9941405 0,2.2479 0.08272,4.371225 0.291016,5.953125 C 16.6666,19.541453 16.9999,20 17.5,20 c 0.5001,0 0.833984,-0.457478 1.083984,-2.830078 0.1667,-1.5818 0.291016,-3.705125 0.291016,-5.953125 0,-2.0397101 -0.08408,-3.1638395 -0.208984,-5.0371095 C 19.457616,5.7217275 20,4.889865 20,3.890625 20,2.558415 17.999316,0.39240012 17.791016,0.14257812 17.697266,0.048977 17.580088,0.00194332 17.457031,0.00195313 Z M 4.25,5.0136719 c 0.79162,0 1.4589844,0.6661412 1.4589844,1.4570312 0,0.79088 -0.6256444,1.4570313 -1.4589844,1.4570313 -0.83333,0 -1.4589844,-0.6661513 -1.4589844,-1.4570313 0,-0.79089 0.6671644,-1.4570312 1.4589844,-1.4570312 z m 6.833984,2.4902343 c 0.87437,-0.0074 1.712891,0.6995594 2.041016,1.7558594 0.2083,0.66589 0.125584,1.3317464 -0.166016,1.8730464 -0.2083,0.4163 -0.5833,0.666216 -1,0.791016 -0.1249,0.0416 -0.2501,0.04102 -0.375,0.04102 -0.875,0 -1.7097384,-0.707347 -2.0429684,-1.748047 C 9.3326856,9.5506469 9.4174344,8.88481 9.7089844,8.34375 9.9173144,7.92747 10.292284,7.6775144 10.708984,7.5527344 c 0.124988,-0.031226 0.25009,-0.047771 0.375,-0.048828 z m -7.6249996,1.171875 c 0.79161,0 1.4570312,0.6661613 1.4570312,1.4570308 0,0.790901 -0.6654212,1.457032 -1.4570312,1.457032 C 2.6673644,11.589844 2,10.965412 2,10.132812 2,9.3419425 2.6673644,8.6757813 3.4589844,8.6757812 Z m 1.2070312,3.9140628 c 0.79162,0 1.4589844,0.666131 1.4589844,1.457031 0,0.7909 -0.6256444,1.457031 -1.4589844,1.457031 -0.79162,0 -1.4570312,-0.666131 -1.4570312,-1.457031 0,-0.7909 0.6654112,-1.457031 1.4570312,-1.457031 z M 8,14.796875 c 0.79161,0 1.4589844,0.666131 1.4589844,1.457031 0,0.7909 -0.6256544,1.457032 -1.4589844,1.457032 -0.79162,0 -1.4589844,-0.666132 -1.4589844,-1.457032 0,-0.7909 0.6673644,-1.457031 1.4589844,-1.457031 z" />
</svg>
