<?xml version="1.0" encoding="UTF-8" standalone="no"?>
<svg
   width="20"
   height="20"
   viewBox="0 0 20 20"
   fill="currentColor"
   version="1.1"
   id="svg4"
   xmlns="http://www.w3.org/2000/svg"
   xmlns:svg="http://www.w3.org/2000/svg">
  <defs
     id="defs8" />
  <path
     id="path2"
     d="M 6.9238281,0 C 5.0886881,0.0029189 3.32912,0.733556 2.03125,2.03125 0.733373,3.32895 0.00290106,5.0885581 0,6.9238281 V 19.230469 c -3.4338001e-4,0.1472 0.04211015,0.291815 0.12109375,0.416015 0.079155,0.1241 0.19080975,0.223257 0.32421875,0.285157 0.101819,0.0448 0.21295475,0.06766 0.32421875,0.06836 0.18355,9e-4 0.36109995,-0.06565 0.49999995,-0.185547 l 3.6542969,-3.128906 c 0.97647,-0.8381 2.2208825,-1.300181 3.5078125,-1.300781 h 4.6445314 c 1.8351,-0.003 3.594778,-0.73355 4.892578,-2.03125 C 19.26665,12.055816 19.9971,10.296187 20,8.4609375 V 6.9238281 C 19.9971,5.0886881 19.26645,3.32912 17.96875,2.03125 16.67105,0.73338 14.911472,0.00290106 13.076172,0 Z M 6.1542969,6.5390625 c 0.30597,0 0.5981431,0.1215506 0.8144531,0.3378906 0.2163,0.21635 0.3378906,0.5085232 0.3378906,0.8144531 0,0.3059301 -0.1215506,0.6000963 -0.3378906,0.8164063 -0.21635,0.2163 -0.5085231,0.3378906 -0.8144531,0.3378906 -0.30593,0 -0.6000963,-0.1215506 -0.8164063,-0.3378906 C 5.1215906,8.2914625 5,7.9973362 5,7.6914062 5,7.3854762 5.1215506,7.0932631 5.3378906,6.8769531 c 0.21635,-0.2163 0.5104763,-0.3378906 0.8164063,-0.3378906 z m 3.8457031,0 c 0.30601,0 0.600106,0.1215506 0.816406,0.3378906 0.2163,0.21635 0.337891,0.5085232 0.337891,0.8144531 0,0.3059301 -0.121591,0.6000963 -0.337891,0.8164063 -0.2164,0.2163 -0.510496,0.3378906 -0.816406,0.3378906 -0.30593,0 -0.6000963,-0.1215506 -0.8164062,-0.3378906 -0.2163001,-0.21635 -0.3378907,-0.5104763 -0.3378907,-0.8164063 0,-0.30593 0.1215506,-0.5981431 0.3378907,-0.8144531 C 9.3999438,6.6606531 9.69407,6.5390625 10,6.5390625 Z m 3.845703,0 c 0.306,0 0.600106,0.1215506 0.816406,0.3378906 C 14.878409,7.0933031 15,7.3854763 15,7.6914062 c 0,0.3059301 -0.121591,0.6000963 -0.337891,0.8164063 -0.2164,0.2163 -0.510506,0.3378906 -0.816406,0.3378906 -0.3059,0 -0.600106,-0.1215506 -0.816406,-0.3378906 -0.2163,-0.21635 -0.337891,-0.5104763 -0.337891,-0.8164063 0,-0.30593 0.121491,-0.5981431 0.337891,-0.8144531 0.2163,-0.2163 0.510506,-0.3378906 0.816406,-0.3378906 z" />
</svg>
