<svg width="20" height="20" viewBox="0 0 20 20" fill="currentColor" xmlns="http://www.w3.org/2000/svg">
<path d="M14.6429 13.5712H12.6665L12.6238 12.1426H14.2858L15.2378 10.874C14.5496 9.65862 15.4441 8.21407 16.7859 8.21407C17.7721 8.21407 18.5716 9.0136 18.5716 9.99978C18.5716 11.1255 17.5288 12.0045 16.3778 11.7343L15.2144 13.2852C15.0796 13.4653 14.8679 13.5712 14.6429 13.5712Z" />
<path d="M1.78572 13.214C0.799533 13.214 0 12.4145 0 11.4283C0 10.4421 0.799533 9.64258 1.78572 9.64258C2.51765 9.64258 3.14478 10.0837 3.4208 10.714H7.41889L7.37621 12.1426L3.42063 12.1425C3.14477 12.7727 2.51765 13.214 1.78572 13.214Z" />
<path d="M20 15.7142C20 16.7004 19.2005 17.5 18.2143 17.5C17.4824 17.5 16.8552 17.0588 16.5792 16.4286H12.7517L12.709 14.9999H16.5792C16.8549 14.3696 17.4824 13.9285 18.2143 13.9285C19.2005 13.9285 20 14.7281 20 15.7142Z" />
<path d="M5.71428 14.9998L4.76228 16.2683C5.45055 17.4837 4.55601 18.9283 3.21424 18.9283C2.22805 18.9283 1.42852 18.1287 1.42852 17.1426C1.42852 16.0168 2.47133 15.1378 3.62231 15.408L4.78571 13.8571C4.92057 13.6771 5.13215 13.5711 5.35718 13.5711H7.33354L7.29086 14.9998L5.71428 14.9998Z" />
<path d="M18.2404 6.37147C16.543 5.40489 14.0996 4.74502 11.3271 4.58643L11.7325 18.2153C11.7619 19.1922 10.9778 20 10.0003 20C9.02271 20 8.23861 19.1922 8.26769 18.215L8.6731 4.58996C5.89886 4.75704 3.45583 5.42504 1.76025 6.39762C1.56079 6.51221 1.34239 6.28651 1.46313 6.09103C2.94906 3.68333 5.45476 1.86871 8.76459 1.50089L8.78867 0.69273C8.80046 0.306922 9.11651 0 9.50283 0H10.4972C10.8833 0 11.1996 0.306922 11.2112 0.69307L11.2352 1.49855C14.5391 1.85929 17.0452 3.66429 18.5367 6.06403C18.6578 6.25901 18.4405 6.48507 18.2404 6.37147Z" />
</svg>
