<?xml version="1.0" encoding="UTF-8" standalone="no"?>
<svg
   width="20"
   height="20"
   viewBox="0 0 20 20"
   fill="currentColor"
   version="1.1"
   id="svg12"
   xmlns="http://www.w3.org/2000/svg"
   xmlns:svg="http://www.w3.org/2000/svg">
  <defs
     id="defs16" />
  <path
     id="path2"
     d="M 9.5019531,0 C 9.1156331,0 8.8008525,0.30755138 8.7890625,0.69335938 L 8.7636719,1.5 c -3.30983,0.36782 -5.8148513,2.1840969 -7.3007813,4.5917969 -0.12074,0.19548 0.097415,0.4212306 0.296875,0.3066406 1.69558,-0.97258 4.1398225,-1.6415137 6.9140625,-1.8085937 L 8.2675781,18.214844 C 8.2384981,19.192044 9.02241,20 10,20 c 0.9775,0 1.761822,-0.808256 1.732422,-1.785156 L 11.326172,4.5859375 c 2.7725,0.15859 5.216662,0.8185762 6.914062,1.7851563 0.2001,0.1135999 0.417975,-0.1116607 0.296875,-0.3066407 -1.4915,-2.39974 -3.998834,-4.2056662 -7.302734,-4.5664062 L 11.210938,0.69335938 C 11.199337,0.30721138 10.884147,0 10.498047,0 Z m 7.2832029,8.2148438 c -1.3418,-1e-7 -2.235075,1.4428231 -1.546875,2.6582032 l -0.953125,1.269531 h -1.662109 l 0.04297,1.427734 h 1.976562 c 0.225,0 0.437466,-0.105056 0.572266,-0.285156 l 1.162109,-1.550781 c 1.151,0.2702 2.195313,-0.608655 2.195313,-1.734375 0,-0.98618 -0.80091,-1.7851562 -1.78711,-1.7851562 z M 1.7851562,9.6425781 C 0.79896925,9.6425781 0,10.441534 0,11.427734 c 0,0.9862 0.79896925,1.78711 1.7851562,1.78711 0.7319301,0 1.3589057,-0.442066 1.6347657,-1.072266 h 3.9570312 l 0.041016,-1.427734 H 3.4199219 C 3.1439019,10.084544 2.5170863,9.6425781 1.7851562,9.6425781 Z m 3.5722657,3.9277339 c -0.22503,1e-6 -0.4374057,0.10711 -0.5722657,0.28711 l -1.1621093,1.550781 c -1.15098,-0.2702 -2.1953125,0.608575 -2.1953125,1.734375 0,0.9861 0.8009193,1.785156 1.7871094,1.785156 1.3417699,0 2.235145,-1.444756 1.546875,-2.660156 L 5.7148438,15 h 1.5761718 l 0.042969,-1.429688 z m 12.8574221,0.357422 c -0.7319,0 -1.359066,0.441966 -1.634766,1.072266 h -3.871094 l 0.04297,1.427734 h 3.828125 C 16.856078,17.057934 17.482944,17.5 18.214844,17.5 19.201044,17.5 20,16.701044 20,15.714844 c 0,-0.9861 -0.798956,-1.78711 -1.785156,-1.78711 z" />
</svg>
