<?xml version="1.0" encoding="UTF-8" standalone="no"?>
<svg
        width="16"
        height="19"
        viewBox="0 0 16 19"
        fill="currentColor"
        version="1.1"
        id="svg4"
        xmlns="http://www.w3.org/2000/svg"
>
    <defs
            id="defs8"/>
    <path
            id="path2"
            d="M 8,0.25 C 5.3855329,0.25 3.25,2.3855329 3.25,5 3.25,6.5898277 4.0900497,7.9337342 5.296875,8.796875 2.3639247,9.9023819 0.25,12.68649 0.25,16 v 2.75 h 15.5 V 16 C 15.75,12.686491 13.636077,9.9023822 10.703125,8.796875 11.909952,7.933736 12.75,6.5898332 12.75,5 12.75,2.3855239 10.614434,0.25 8,0.25 Z m 0,1.5 C 9.8037612,1.75 11.25,3.1962005 11.25,5 11.25,6.8037995 9.8037612,8.25 8,8.25 6.1961915,8.25 4.75,6.8038085 4.75,5 4.75,3.1961915 6.1961915,1.75 8,1.75 Z m 0,8 c 3.460668,0 6.25,2.789332 6.25,6.25 v 1.25 H 1.75 V 16 C 1.75,12.539333 4.539343,9.75 8,9.75 Z"/>
</svg>
