<?xml version="1.0" encoding="UTF-8" standalone="no"?>
<svg
   width="20"
   height="20"
   viewBox="0 0 20 20"
   fill="currentColor"
   version="1.1"
   id="svg8"
   xmlns="http://www.w3.org/2000/svg"
   xmlns:svg="http://www.w3.org/2000/svg">
  <defs
     id="defs12" />
  <path
     id="path2"
     d="m 17.601562,0 c -0.09267,-1.415875e-4 -0.184893,0.00579302 -0.277343,0.01953125 -0.3696,0.0548136 -0.716488,0.22036025 -0.992188,0.47265625 -0.3279,0.285915 -0.623506,0.6119719 -0.941406,0.9199219 L 13.818359,2.984375 c -0.5736,0.57185 -1.14905,1.14291 -1.71875,1.71875 -0.2141,0.25231 -0.490581,0.4438037 -0.800781,0.5585938 -0.164,0.04993 -0.310709,0.1554262 -0.474609,0.1914062 -0.3319,0.07001 -0.354566,0.5190344 -0.134766,0.7089844 0.152,0.13194 0.285694,0.2818318 0.433594,0.4199218 0.2,0.2000001 0.40049,0.3796694 0.650391,0.5996094 -0.3238,0.30586 -0.616438,0.5736025 -0.898438,0.8515625 -0.98731,0.9943 -1.97596,1.9898749 -2.96875,2.9843749 -1.33256,1.3329 -2.671215,2.665147 -4.015625,3.998047 -0.08464,0.0883 -0.1959362,0.147169 -0.3164062,0.167969 -0.3517901,0.066 -0.6989944,0.147219 -1.0527344,0.199218 -0.10206,0.018 -0.1898982,0.08318 -0.2363282,0.175782 L 0.94921875,17.654297 0,19.119141 0.875,19.966797 c 0.273851,-0.182 0.5598762,-0.372447 0.8476562,-0.560547 0.9114701,-0.5878 1.822765,-1.175972 2.734375,-1.763672 0.05326,-0.0377 0.093065,-0.09305 0.109375,-0.15625 0.0739,-0.3399 0.1452488,-0.679437 0.1992188,-1.023437 0.02914,-0.1605 0.1111219,-0.306816 0.2324219,-0.416016 1.19271,-1.1849 2.37911,-2.373506 3.5625,-3.566406 L 12.619141,8.4101562 c 0.054,-0.05398 0.109928,-0.1059118 0.173828,-0.1699218 0.0799,0.08201 0.150756,0.1565487 0.222656,0.2304687 0.2919,0.28996 0.581159,0.5851806 0.880859,0.8691407 0.0876,0.07127 0.201,0.1011343 0.3125,0.083984 0.1116,-0.01716 0.211238,-0.079688 0.273438,-0.1738281 0.0979,-0.22399 0.199397,-0.4477644 0.279297,-0.6777344 0.0702,-0.19903 0.187297,-0.3796575 0.341797,-0.5234375 1.4452,-1.43754 2.887065,-2.8687331 4.322265,-4.3144531 0.2914,-0.28061 0.483328,-0.647695 0.548828,-1.046875 0.0656,-0.39932 8.53e-4,-0.8088188 -0.185547,-1.1679688 C 19.516163,0.91423325 19.022203,0.43588275 18.408203,0.18359375 18.155303,0.06256887 17.879578,4.247625e-4 17.601562,0 Z M 4.1992188,0.0390625 C 3.9566953,0.04377869 3.7141238,0.06240422 3.4726562,0.09765625 3.2526363,0.14159055 3.0344825,0.19700388 2.8203125,0.26367188 c 0.04002,0.049929 0.058185,0.073666 0.078125,0.09375 0.8596,0.88243602 1.718515,1.76477122 2.578125,2.64453122 0.50572,0.51589 0.5730806,1.0192894 0.025391,1.5371094 -0.2599,0.24589 -0.5019456,0.5098356 -0.7597656,0.7597656 -0.21389,0.2 -0.4302294,0.4175894 -0.6621094,0.5996094 C 3.9268381,6.0098775 3.732025,6.0500656 3.546875,6.0097656 3.290175,5.9568956 3.0591987,5.8225 2.8867188,5.625 2.2290088,4.9791 1.5775033,4.323625 0.92578125,3.671875 0.69794825,3.443985 0.47436187,3.2108606 0.23242188,2.9628906 c -0.018126,0.04045 -0.0350221,0.08288 -0.0488281,0.125 -0.2164005,0.84155 -0.24139862,1.7199556 -0.0722656,2.5722656 0.229786,1.15368 0.7563945,2.1154001 1.75781248,2.78125 0.60068,0.40782 1.2977044,0.6529244 2.0214844,0.7089844 0.82755,0.05997 1.6605975,0.00976 2.4921875,0.013672 0.06874,-1.4e-4 0.1347969,0.025826 0.1855469,0.072266 0.32781,0.36387 0.6487562,0.7355288 0.9726562,1.1054689 0.04392,0.0499 0.091388,0.09714 0.1113282,0.119141 L 10.394531,7.7519531 c -0.0087,-0.0106 -0.0192,-0.019957 -0.0293,-0.029297 C 9.9935344,7.4007563 9.6370669,7.0894881 9.2792969,6.7675781 9.2218469,6.7162581 9.1870806,6.6453494 9.1816406,6.5683594 9.1816406,6.0044794 9.1806831,5.43888 9.2207031,4.875 9.2593231,4.4058 9.2239944,3.9326294 9.1152344,3.4746094 8.9362044,2.7227094 8.5588575,2.0337325 8.0234375,1.4765625 7.5507675,0.9949765 6.9741206,0.62731875 6.3378906,0.40234375 5.6517681,0.14700625 4.9267891,0.02491391 4.1992188,0.0390625 Z m 8.1718752,9.421875 -2.9980471,2.9609375 0.1132812,0.134766 1.7050779,1.951171 1.59961,1.84375 c 0.4878,0.5599 0.973143,1.120029 1.464843,1.673829 0.3657,0.4099 0.715535,0.834837 1.115235,1.210937 0.4633,0.4549 1.078162,0.725066 1.726562,0.759766 0.7137,0.0372 1.412407,-0.21276 1.941406,-0.69336 0.5291,-0.4808 0.8438,-1.152787 0.875,-1.867187 0.0314,-0.7142 -0.224084,-1.410247 -0.708984,-1.935547 -0.478,-0.4935 -0.983672,-0.961038 -1.513672,-1.398438 -0.8476,-0.7477 -1.70114,-1.480956 -2.55664,-2.222656 L 12.771484,9.8164062 c -0.1439,-0.12399 -0.28459,-0.2494687 -0.40039,-0.3554687 z" />
</svg>
