<?xml version="1.0" encoding="UTF-8" standalone="no"?>
<svg
   width="20"
   height="19"
   viewBox="0 0 20 19"
   fill="currentColor"
   version="1.1"
   id="svg8"
   xmlns="http://www.w3.org/2000/svg"
   xmlns:svg="http://www.w3.org/2000/svg">
  <defs
     id="defs12" />
  <path
     id="path2"
     d="M 4.3320312,0 C 4.1188212,-1.766977e-4 3.9140319,0.0847025 3.7636719,0.234375 L 0.23632812,3.7246094 C 0.08508183,3.8733994 -1.782811e-4,4.0761094 0,4.2871094 v 1.5839844 c -0.00589288,0.50096 0.1751215,0.9858712 0.5078125,1.3632812 0.332667,0.37746 0.794765,0.6194306 1.296875,0.6816406 0.56355,0.05495 1.1242388,-0.1285993 1.5429687,-0.5058594 C 3.7662163,7.0328862 4.0027,6.49786 4,5.9375 c 0,0.70702 0.38126,1.3614037 1,1.7148438 0.61872,0.3535899 1.38127,0.3535899 2,0 C 7.61872,7.2989237 8,6.64452 8,5.9375 c 0,0.70702 0.38127,1.3614037 1,1.7148438 0.61873,0.3535899 1.3812,0.3535899 2,0 C 11.6187,7.2989237 12,6.64452 12,5.9375 c 0,0.70702 0.3813,1.3614037 1,1.7148438 0.6187,0.3535899 1.3813,0.3535899 2,0 C 15.6188,7.2989237 16,6.64452 16,5.9375 c -0.0027,0.56036 0.233844,1.0953763 0.652344,1.4726562 0.4188,0.3772701 0.979469,0.5608194 1.542968,0.5058594 0.505001,-0.06256 0.969635,-0.30668 1.302735,-0.6875 C 19.831247,6.8477056 20.0098,6.3589188 20,5.8554688 V 4.2714844 c 2e-4,-0.211 -0.08503,-0.41371 -0.236328,-0.5625 L 16.236328,0.21875 C 16.083328,0.0749082 15.878869,-0.00441969 15.667969,0 Z M 2,9.5 c -0.21213,0 -0.4164062,0.083982 -0.5664062,0.2324219 -0.14999,0.14843 -0.234375,0.3486941 -0.234375,0.5585941 v 7.917968 c -10e-8,0.21 0.084385,0.410094 0.234375,0.558594 C 1.5835938,18.915978 1.78787,19 2,19 h 16 c 0.2121,0 0.416406,-0.08402 0.566406,-0.232422 0.1499,-0.1485 0.232422,-0.348594 0.232422,-0.558594 v -7.917968 c 0,-0.2099 -0.08252,-0.4101641 -0.232422,-0.5585941 C 18.416406,9.5839819 18.2121,9.5 18,9.5 c -0.2122,0 -0.416506,0.083982 -0.566406,0.2324219 -0.15,0.14843 -0.234375,0.3486941 -0.234375,0.5585941 v 6.730468 c 0,0.1049 -0.04219,0.205097 -0.117188,0.279297 -0.075,0.0742 -0.177203,0.115235 -0.283203,0.115235 H 3.1992188 c -0.10607,0 -0.20625,-0.04104 -0.28125,-0.115235 -0.075,-0.0742 -0.1171876,-0.174397 -0.1171876,-0.279297 v -6.730468 c 0,-0.2099 -0.084375,-0.4101641 -0.234375,-0.5585941 C 2.4164163,9.5839819 2.21214,9.5 2,9.5 Z m 6.4003906,0 c -0.21213,0 -0.4164062,0.083982 -0.5664062,0.2324219 -0.14999,0.14843 -0.234375,0.3486941 -0.234375,0.5585941 v 5.542968 c 0,0.2186 0.1795106,0.394532 0.4003906,0.394532 h 4 c 0.1061,0 0.208203,-0.04104 0.283203,-0.115235 0.075,-0.0742 0.117188,-0.174397 0.117188,-0.279297 v -5.542968 c 0,-0.2099 -0.08438,-0.4101641 -0.234375,-0.5585941 C 12.016016,9.5839819 11.811809,9.5 11.599609,9.5 Z" />
</svg>
